# xmcd
#
# Track frame offsets:
#	150
#	16611
#	32736
#	47340
#	68187
#	85090
#	102289
#	116727
#	132320
#	150539
#	167283
#	183742
#	197635
#	213395
#
# Disc length: 3118 seconds
#
# Revision: 0
# Processed by: cddbd v1.4PL0 Copyright (c) Steve Scherf et al.
# Submitted via: EasyCDDAExtractor 4.5.0.2
#
DISCID=af0c2c0e
DTITLE=Antwniadhs Xristos - Gnwmh sou
DYEAR=1900
DGENRE=
TTITLE0=Pou na deis
TTITLE1=Gnwmh sou
TTITLE2=Eisai to alfa kai to omega
TTITLE3=Parais8hseis
TTITLE4=Etsi nomizeis
TTITLE5=8ema xronou
TTITLE6=Pagovouno
TTITLE7=Sidero anammeno
TTITLE8=Na klaiw
TTITLE9=An oi antres agapane
TTITLE10=Mh to syzhtas
TTITLE11=Mouskemeno poukamiso
TTITLE12=Mia teleutaia kalhnyxta
TTITLE13=Swma
EXTD=KLcanislupus©
EXTT0=
EXTT1=
EXTT2=
EXTT3=
EXTT4=
EXTT5=
EXTT6=
EXTT7=
EXTT8=
EXTT9=
EXTT10=
EXTT11=
EXTT12=
EXTT13=
PLAYORDER=
